<svg width="92" height="26" viewBox="0 0 92 26" fill="none" xmlns="http://www.w3.org/2000/svg">
<path d="M82.7031 11.9011L85.2695 8.33276C85.3516 8.21558 85.457 8.07495 85.5859 7.91089C86.2656 7.11401 87.0391 6.71558 87.9062 6.71558H89.6289C89.8281 6.71558 90.0215 6.73901 90.209 6.78589C91.123 7.03198 91.4219 7.75854 91.1055 8.96558L86.8867 24.9617C86.7578 25.4421 86.4414 25.6882 85.9375 25.7H83.2129C83.0137 25.7 82.8672 25.6472 82.7734 25.5417C82.6562 25.4128 82.6445 25.1843 82.7383 24.8562L84.918 16.8406C84.918 16.8289 84.9766 16.6355 85.0938 16.2605C85.5039 14.866 85.5742 14.1687 85.3047 14.1687C85.1875 14.1687 85.0469 14.2742 84.8828 14.4851C84.8711 14.4968 84.625 14.8953 84.1445 15.6804C83.5352 16.6882 82.6797 18.2703 81.5781 20.4265C80.2188 23.0984 79.3984 24.6335 79.1172 25.032C78.7773 25.4656 78.4141 25.6882 78.0273 25.7H75.8828C75.7891 25.7 75.6953 25.6707 75.6016 25.6121C75.3203 25.448 75.2266 25.1726 75.3203 24.7859L79.8906 7.69995C80.0664 7.06714 80.418 6.73901 80.9453 6.71558H83.1953C83.4297 6.71558 83.623 6.73901 83.7754 6.78589C84.1621 6.91479 84.2617 7.25464 84.0742 7.80542L82.7031 11.9011Z" fill="#1A68FE"/>
<path d="M67.6211 23.2742H67.6387L67.5684 23.116L67.2344 23.5203C66.8125 24.0242 66.4492 24.4402 66.1445 24.7683C65.4648 25.4597 64.8555 25.8054 64.3164 25.8054H64.0703C63.6719 25.782 63.0859 25.3953 62.3125 24.6453C61.4102 23.7546 60.959 22.7703 60.959 21.6921C60.959 19.6062 61.6855 16.6121 63.1387 12.7097C64.0879 10.1316 65.0664 8.46167 66.0742 7.69995C66.8711 7.10229 67.8086 6.79761 68.8867 6.78589C69.8945 6.78589 70.8555 7.10815 71.7695 7.75269L71.8398 7.45386C71.9102 7.17261 71.9863 6.98511 72.0684 6.89136C72.2441 6.70386 72.4492 6.61011 72.6836 6.61011H74.9336C75.7656 6.61011 76.0938 6.99683 75.918 7.77026L72.0508 20.6902C72.3789 20.3621 72.6367 20.0398 72.8242 19.7234C73.0586 19.3484 73.3516 19.2664 73.7031 19.4773L75.25 20.4968C75.5898 20.7546 75.6719 21.0242 75.4961 21.3054C75.1797 21.7625 74.8457 22.196 74.4941 22.6062C72.7363 24.6335 70.9609 25.7234 69.168 25.8757C68.8984 25.8992 68.6875 25.7703 68.5352 25.489L67.6211 23.2742ZM71.0312 10.6882C70.9844 10.6765 70.9375 10.6589 70.8906 10.6355C70.457 10.5066 70.0938 10.448 69.8008 10.4597C69.5312 10.4597 69.3203 10.5125 69.168 10.6179C68.7578 10.9343 68.2246 11.9187 67.5684 13.571C66.7246 15.6921 66.1328 17.6375 65.793 19.407C65.7227 19.8054 65.6816 20.0691 65.6699 20.198C65.6699 20.3738 65.7402 20.4617 65.8809 20.4617C65.9629 20.4617 66.0391 20.45 66.1094 20.4265C66.543 20.2273 67.1172 19.5359 67.832 18.3523C69.0742 16.2078 70.082 13.8289 70.8555 11.2156L71.0312 10.6882Z" fill="#1A68FE"/>
<path d="M53.5055 11.5671H59.4821C60.1266 11.5789 60.3727 11.9539 60.2204 12.6921L59.7985 14.7664C59.7633 14.907 59.7047 15.0476 59.6227 15.1882C59.3649 15.5632 59.0485 15.7507 58.6735 15.7507H52.4333L50.0954 24.9265C49.9547 25.4304 49.6032 25.6882 49.0407 25.7H46.0524C45.9001 25.7 45.7653 25.6648 45.6481 25.5945C45.3434 25.3953 45.2438 25.0671 45.3493 24.6101L50.4997 4.43042H49.2516C49.1579 4.43042 49.07 4.42456 48.9879 4.41284C48.5192 4.33081 48.3844 3.91479 48.5836 3.16479L49.1461 0.949951C49.193 0.739014 49.2458 0.580811 49.3044 0.475342C49.3864 0.322998 49.568 0.246826 49.8493 0.246826H52.4157H55.404H62.8922C63.5836 0.258545 63.8532 0.633545 63.7008 1.37183L63.2438 3.44604C63.2086 3.58667 63.1442 3.72729 63.0504 3.86792C62.7809 4.24292 62.4469 4.43042 62.0485 4.43042H55.3161L53.5055 11.5671Z" fill="#1A68FE"/>
<path d="M37.668 11.9011L40.2344 8.33276C40.3164 8.21558 40.4219 8.07495 40.5508 7.91089C41.2305 7.11401 42.0039 6.71558 42.8711 6.71558H44.5938C44.793 6.71558 44.9863 6.73901 45.1738 6.78589C46.0879 7.03198 46.3867 7.75854 46.0703 8.96558L41.8516 24.9617C41.7227 25.4421 41.4062 25.6882 40.9023 25.7H38.1777C37.9785 25.7 37.832 25.6472 37.7383 25.5417C37.6211 25.4128 37.6094 25.1843 37.7031 24.8562L39.8828 16.8406C39.8828 16.8289 39.9414 16.6355 40.0586 16.2605C40.4688 14.866 40.5391 14.1687 40.2695 14.1687C40.1523 14.1687 40.0117 14.2742 39.8477 14.4851C39.8359 14.4968 39.5898 14.8953 39.1094 15.6804C38.5 16.6882 37.6445 18.2703 36.543 20.4265C35.1836 23.0984 34.3633 24.6335 34.082 25.032C33.7422 25.4656 33.3789 25.6882 32.9922 25.7H30.8477C30.7539 25.7 30.6602 25.6707 30.5664 25.6121C30.2852 25.448 30.1914 25.1726 30.2852 24.7859L34.8555 7.69995C35.0312 7.06714 35.3828 6.73901 35.9102 6.71558H38.1602C38.3945 6.71558 38.5879 6.73901 38.7402 6.78589C39.127 6.91479 39.2266 7.25464 39.0391 7.80542L37.668 11.9011Z" fill="#1A68FE"/>
<path d="M24.6246 20.4617L22.568 23.3796C22.2868 23.8132 22.0114 24.1882 21.7418 24.5046C21.0387 25.325 20.2477 25.7351 19.3688 25.7351H19.1578C18.6422 25.7351 18.1911 25.6121 17.8043 25.366C16.8668 24.7332 16.5563 23.4851 16.8727 21.6218C17.025 20.7546 17.4821 18.9089 18.2438 16.0847C19.5328 11.3269 20.3883 8.36792 20.8102 7.20776C20.9274 6.89136 21.2203 6.72729 21.6891 6.71558H24.4313C24.6539 6.71558 24.8004 6.82104 24.8707 7.03198C24.9293 7.21948 24.8883 7.53589 24.7477 7.9812C23.5055 11.8718 22.6266 14.825 22.111 16.8406C22.0055 17.2625 21.9528 17.5906 21.9528 17.825C21.9528 18.0828 22.0231 18.2117 22.1637 18.2117C22.4098 18.2117 22.7907 17.7429 23.3063 16.8054C25.2985 13.2195 26.8922 10.1257 28.0875 7.52417C28.3453 7.00854 28.7321 6.73901 29.2477 6.71558H31.3922C31.486 6.71558 31.5797 6.74487 31.6735 6.80347C31.9547 6.96753 32.0485 7.24292 31.9547 7.62964L27.3844 24.7507C27.2203 25.3601 26.8688 25.6765 26.3297 25.7H24.15C23.4352 25.7 23.2125 25.2781 23.4821 24.4343L24.6246 20.4617Z" fill="#1A68FE"/>
<path d="M8.89224 11.5671H14.8688C15.5133 11.5789 15.7594 11.9539 15.6071 12.6921L15.1852 14.7664C15.1501 14.907 15.0915 15.0476 15.0094 15.1882C14.7516 15.5632 14.4352 15.7507 14.0602 15.7507H7.81998L5.48209 24.9265C5.34146 25.4304 4.9899 25.6882 4.4274 25.7H1.43912C1.28677 25.7 1.15201 25.6648 1.03482 25.5945C0.730134 25.3953 0.630525 25.0671 0.735993 24.6101L5.88638 4.43042H4.63834C4.54459 4.43042 4.4567 4.42456 4.37467 4.41284C3.90592 4.33081 3.77115 3.91479 3.97037 3.16479L4.53287 0.949951C4.57974 0.739014 4.63248 0.580811 4.69107 0.475342C4.7731 0.322998 4.95474 0.246826 5.23599 0.246826H7.8024H10.7907H18.279C18.9704 0.258545 19.2399 0.633545 19.0876 1.37183L18.6305 3.44604C18.5954 3.58667 18.5309 3.72729 18.4372 3.86792C18.1676 4.24292 17.8336 4.43042 17.4352 4.43042H10.7028L8.89224 11.5671Z" fill="#1A68FE"/>
</svg>
