<svg width="180" height="176" viewBox="0 0 180 176" fill="none" xmlns="http://www.w3.org/2000/svg">
<path d="M38.4199 7.97729C42.9 7.97729 46.6843 10.9478 47.916 15.0261C49.7347 13.0892 52.4113 11.864 55.3975 11.864C60.2763 11.864 64.3291 15.132 65.1592 19.4373C65.2798 19.4336 65.4009 19.4314 65.5225 19.4314C71.9701 19.4314 77.2558 24.5697 77.7559 31.0994C81.7938 31.2298 85.2912 33.4873 87.1689 36.7888C90.098 33.902 94.1646 32.114 98.6592 32.114C99.0712 32.114 99.4796 32.1284 99.8838 32.158C101.715 27.233 106.428 23.7274 111.954 23.7273C117.101 23.7273 121.542 26.7684 123.607 31.1648C125.124 30.3403 126.913 29.8641 128.829 29.864C134.308 29.864 138.75 33.7555 138.75 38.5564C138.75 38.7162 138.744 38.8753 138.734 39.033C139.79 38.7884 140.891 38.6589 142.022 38.6589C149.93 38.6589 156.341 44.9784 156.341 52.7732C156.341 53.1363 156.326 53.4961 156.299 53.8523C156.615 53.8158 156.935 53.7957 157.261 53.7957C161.949 53.7957 165.75 57.6879 165.75 62.489C165.75 64.7159 164.931 66.7459 163.586 68.2839C167.142 69.7921 169.636 73.3149 169.636 77.4207C169.636 82.8995 165.195 87.3405 159.716 87.3406C156.428 87.3406 153.516 85.7407 151.711 83.2781C150.277 83.9165 148.697 84.2732 147.034 84.2732C140.539 84.2732 135.273 78.8698 135.272 72.2048C135.272 70.9762 135.453 69.7905 135.785 68.6736C133.079 69.9538 129.94 70.7096 126.585 70.7673C125.135 78.58 118.588 84.4771 110.728 84.4773C105.11 84.4773 100.162 81.4643 97.2666 76.8933C96.3891 77.0371 95.4878 77.114 94.5684 77.114C91.9068 77.114 89.3955 76.4858 87.1816 75.3748C88.1152 77.4309 88.6357 79.7165 88.6357 82.1248C88.6357 91.1055 81.4018 98.3862 72.4775 98.3865C63.5531 98.3865 56.3184 91.1057 56.3184 82.1248C56.3184 78.7872 57.3175 75.6847 59.0312 73.1033C57.0034 72.4081 55.1906 71.2505 53.7178 69.7566C51.629 71.7744 48.7543 73.0232 45.5791 73.0232C40.0065 73.0231 35.3564 69.1828 34.2656 64.073C32.4285 64.9579 30.369 65.4548 28.1934 65.4548C20.4551 65.4548 14.1816 59.1814 14.1816 51.4431C14.1817 46.3334 16.9168 41.8626 21.0029 39.4148C18.368 37.6314 16.6357 34.6144 16.6357 31.1931C16.6358 25.7142 21.0778 21.2732 26.5566 21.2732C27.4837 21.2732 28.3803 21.4026 29.2314 21.6404C28.7606 20.4855 28.5001 19.2224 28.5 17.8982C28.5 12.4194 32.9412 7.97749 38.4199 7.97729Z" fill="white"/>
<path d="M38.4199 7.97729V6.95457H38.4199L38.4199 7.97729ZM47.916 15.0261L46.937 15.3218L47.4491 17.0176L48.6616 15.7262L47.916 15.0261ZM55.3975 11.864V10.8413H55.3975L55.3975 11.864ZM65.1592 19.4373L64.1549 19.6309L64.3197 20.4857L65.1899 20.4595L65.1592 19.4373ZM65.5225 19.4314V18.4087H65.5225L65.5225 19.4314ZM77.7559 31.0994L76.7361 31.1775L76.8062 32.092L77.7229 32.1216L77.7559 31.0994ZM87.1689 36.7888L86.28 37.2944L86.9383 38.452L87.8868 37.5172L87.1689 36.7888ZM98.6592 32.114L98.6592 31.0913H98.6592V32.114ZM99.8838 32.158L99.8093 33.178L100.575 33.2339L100.842 32.5144L99.8838 32.158ZM111.954 23.7273V22.7046H111.954L111.954 23.7273ZM123.607 31.1648L122.682 31.5996L123.143 32.5814L124.096 32.0633L123.607 31.1648ZM128.829 29.864V28.8413H128.829L128.829 29.864ZM138.75 38.5564H139.773V38.5563L138.75 38.5564ZM138.734 39.033L137.714 38.9701L137.629 40.3387L138.965 40.0293L138.734 39.033ZM142.022 38.6589V37.6362H142.022L142.022 38.6589ZM156.341 52.7732L157.364 52.7732V52.7732H156.341ZM156.299 53.8523L155.279 53.774L155.184 55.0107L156.416 54.8683L156.299 53.8523ZM157.261 53.7957V52.7729H157.261L157.261 53.7957ZM165.75 62.489L166.773 62.4891V62.489H165.75ZM163.586 68.2839L162.816 67.6108L161.886 68.674L163.187 69.2255L163.586 68.2839ZM169.636 77.4207L170.658 77.4207V77.4207H169.636ZM159.716 87.3406V88.3633H159.716L159.716 87.3406ZM151.711 83.2781L152.536 82.6734L152.048 82.0083L151.295 82.3438L151.711 83.2781ZM147.034 84.2732V85.2959H147.034L147.034 84.2732ZM135.272 72.2048H134.25V72.2049L135.272 72.2048ZM135.785 68.6736L136.765 68.9655L137.419 66.7693L135.348 67.7491L135.785 68.6736ZM126.17 70.7732L126.17 71.7959H126.17V70.7732ZM110.482 64.1013L111.264 63.4413L109.861 61.7804L109.476 63.9203L110.482 64.1013ZM94.5684 77.114V78.1367H94.5684L94.5684 77.114ZM87.1816 75.3748L87.6404 74.4607L85.0541 73.1628L86.2504 75.7976L87.1816 75.3748ZM88.6357 82.1248H89.6585V82.1247L88.6357 82.1248ZM72.4775 98.3865V99.4092H72.4776L72.4775 98.3865ZM56.3184 82.1248L55.2956 82.1247V82.1248H56.3184ZM59.0312 73.1033L59.8833 73.6689L60.616 72.5653L59.3629 72.1358L59.0312 73.1033ZM53.7178 69.7566L54.4461 69.0386L53.7354 68.3176L53.0072 69.021L53.7178 69.7566ZM45.5791 73.0232L45.5791 74.0459H45.5791V73.0232ZM34.2656 64.073L35.2658 63.8595L34.9942 62.5869L33.8218 63.1516L34.2656 64.073ZM28.1934 65.4548V66.4776H28.1934L28.1934 65.4548ZM14.1816 51.4431L13.1589 51.4431V51.4431H14.1816ZM21.0029 39.4148L21.5285 40.2921L22.9053 39.4674L21.5762 38.5678L21.0029 39.4148ZM16.6357 31.1931L15.613 31.1931V31.1931H16.6357ZM26.5566 21.2732V20.2505V20.2505V21.2732ZM29.2314 21.6404L28.9562 22.6254L30.9665 23.1871L30.1785 21.2543L29.2314 21.6404ZM28.5 17.8982H27.4773V17.8982L28.5 17.8982ZM38.4199 7.97729V9.00002C42.4363 9.00002 45.8319 11.6628 46.937 15.3218L47.916 15.0261L48.8951 14.7304C47.5368 10.2328 43.3638 6.95457 38.4199 6.95457V7.97729ZM47.916 15.0261L48.6616 15.7262C50.2862 13.9959 52.6926 12.8868 55.3975 12.8867L55.3975 11.864L55.3975 10.8413C52.13 10.8413 49.1832 12.1824 47.1704 14.3261L47.916 15.0261ZM55.3975 11.864V12.8867C59.8306 12.8867 63.4259 15.8493 64.1549 19.6309L65.1592 19.4373L66.1634 19.2436C65.2324 14.4147 60.722 10.8413 55.3975 10.8413V11.864ZM65.1592 19.4373L65.1899 20.4595C65.3027 20.4561 65.4134 20.4541 65.5225 20.4541L65.5225 19.4314L65.5225 18.4087C65.3885 18.4087 65.2569 18.4111 65.1285 18.415L65.1592 19.4373ZM65.5225 19.4314V20.4541C71.4034 20.4541 76.2744 25.1481 76.7361 31.1775L77.7559 31.0994L78.7756 31.0213C78.2372 23.9912 72.5368 18.4087 65.5225 18.4087V19.4314ZM77.7559 31.0994L77.7229 32.1216C81.3914 32.24 84.5713 34.2903 86.28 37.2944L87.1689 36.7888L88.0579 36.2832C86.0111 32.6844 82.1963 30.2195 77.7889 30.0772L77.7559 31.0994ZM87.1689 36.7888L87.8868 37.5172C90.6295 34.8142 94.4401 33.1367 98.6592 33.1367V32.114V31.0913C93.889 31.0913 89.5666 32.9899 86.451 36.0604L87.1689 36.7888ZM98.6592 32.114L98.6592 33.1367C99.0473 33.1367 99.4308 33.1503 99.8093 33.178L99.8838 32.158L99.9583 31.1379C99.5283 31.1065 99.095 31.0913 98.6592 31.0913L98.6592 32.114ZM99.8838 32.158L100.842 32.5144C102.531 27.973 106.874 24.7501 111.954 24.75L111.954 23.7273L111.954 22.7046C105.983 22.7047 100.899 26.4929 98.9252 31.8015L99.8838 32.158ZM111.954 23.7273V24.75C116.686 24.75 120.777 27.5454 122.682 31.5996L123.607 31.1648L124.533 30.73C122.307 25.9914 117.515 22.7046 111.954 22.7046V23.7273ZM123.607 31.1648L124.096 32.0633C125.462 31.3208 127.083 30.8868 128.829 30.8867L128.829 29.864L128.829 28.8413C126.743 28.8413 124.786 29.3598 123.119 30.2662L123.607 31.1648ZM128.829 29.864V30.8867C133.874 30.8867 137.727 34.4432 137.727 38.5565L138.75 38.5564L139.773 38.5563C139.772 33.0678 134.742 28.8413 128.829 28.8413V29.864ZM138.75 38.5564H137.727C137.727 38.6912 137.722 38.8289 137.714 38.9701L138.734 39.033L139.755 39.0958C139.766 38.9217 139.773 38.7412 139.773 38.5564H138.75ZM138.734 39.033L138.965 40.0293C139.946 39.8022 140.969 39.6817 142.022 39.6817L142.022 38.6589L142.022 37.6362C140.813 37.6362 139.634 37.7747 138.504 38.0366L138.734 39.033ZM142.022 38.6589V39.6817C149.379 39.6817 155.318 45.5571 155.318 52.7732H156.341H157.364C157.364 44.3998 150.481 37.6362 142.022 37.6362V38.6589ZM156.341 52.7732L155.318 52.7732C155.318 53.1087 155.305 53.4425 155.279 53.774L156.299 53.8523L157.319 53.9305C157.348 53.5498 157.364 53.1638 157.364 52.7732L156.341 52.7732ZM156.299 53.8523L156.416 54.8683C156.696 54.8359 156.978 54.8184 157.261 54.8184L157.261 53.7957L157.261 52.7729C156.893 52.7729 156.533 52.7957 156.181 52.8363L156.299 53.8523ZM157.261 53.7957V54.8184C161.361 54.8184 164.727 58.2297 164.727 62.489H165.75H166.773C166.773 57.1461 162.536 52.7729 157.261 52.7729V53.7957ZM165.75 62.489L164.727 62.489C164.727 64.461 164.003 66.2536 162.816 67.6108L163.586 68.2839L164.356 68.9571C165.859 67.2382 166.773 64.9708 166.773 62.4891L165.75 62.489ZM163.586 68.2839L163.187 69.2255C166.378 70.579 168.613 73.7398 168.613 77.4207H169.636H170.658C170.658 72.89 167.906 69.0051 163.985 67.3424L163.586 68.2839ZM169.636 77.4207L168.613 77.4206C168.613 82.3346 164.63 86.3178 159.716 86.3178L159.716 87.3406L159.716 88.3633C165.759 88.3633 170.658 83.4643 170.658 77.4207L169.636 77.4207ZM159.716 87.3406V86.3178C156.768 86.3178 154.157 84.8849 152.536 82.6734L151.711 83.2781L150.886 83.8827C152.875 86.5966 156.088 88.3633 159.716 88.3633V87.3406ZM151.711 83.2781L151.295 82.3438C149.988 82.9257 148.549 83.2504 147.034 83.2505L147.034 84.2732L147.034 85.2959C148.844 85.2959 150.567 84.9072 152.127 84.2124L151.711 83.2781ZM147.034 84.2732V83.2505C141.128 83.2505 136.295 78.3299 136.295 72.2048L135.272 72.2048L134.25 72.2049C134.25 79.4096 139.949 85.2959 147.034 85.2959V84.2732ZM135.272 72.2048H136.295C136.295 71.0766 136.461 69.9892 136.765 68.9655L135.785 68.6736L134.805 68.3817C134.445 69.5919 134.25 70.8758 134.25 72.2048H135.272ZM135.785 68.6736L135.348 67.7491C132.67 69.0158 129.532 69.7505 126.17 69.7505V70.7732V71.7959C129.829 71.7959 133.265 70.9969 136.222 69.5981L135.785 68.6736ZM126.17 70.7732L126.17 69.7505C119.903 69.7504 114.446 67.2088 111.264 63.4413L110.482 64.1013L109.701 64.7613C113.319 69.0442 119.377 71.7958 126.17 71.7959L126.17 70.7732ZM110.482 64.1013L109.476 63.9203C108.236 70.8167 102.049 76.0911 94.5683 76.0913L94.5684 77.114L94.5684 78.1367C103.02 78.1366 110.07 72.1724 111.489 64.2823L110.482 64.1013ZM94.5684 77.114V76.0913C92.0692 76.0913 89.7147 75.5016 87.6404 74.4607L87.1816 75.3748L86.7229 76.2888C89.0764 77.4699 91.7444 78.1367 94.5684 78.1367V77.114ZM87.1816 75.3748L86.2504 75.7976C87.1248 77.7235 87.613 79.8652 87.613 82.1248L88.6357 82.1248L89.6585 82.1247C89.6584 79.5678 89.1055 77.1382 88.1129 74.9519L87.1816 75.3748ZM88.6357 82.1248H87.613C87.613 90.5468 80.8308 97.3635 72.4775 97.3637L72.4775 98.3865L72.4776 99.4092C81.9727 99.4089 89.6585 91.6642 89.6585 82.1248H88.6357ZM72.4775 98.3865V97.3637C64.1241 97.3637 57.3411 90.5469 57.3411 82.1248H56.3184H55.2956C55.2956 91.6644 62.9822 99.4092 72.4775 99.4092V98.3865ZM56.3184 82.1248L57.3411 82.1248C57.3411 78.9942 58.2776 76.0876 59.8833 73.6689L59.0312 73.1033L58.1792 72.5376C56.3574 75.2819 55.2957 78.5802 55.2956 82.1247L56.3184 82.1248ZM59.0312 73.1033L59.3629 72.1358C57.4878 71.493 55.81 70.4221 54.4461 69.0386L53.7178 69.7566L52.9895 70.4746C54.5711 72.079 56.519 73.3232 58.6996 74.0707L59.0312 73.1033ZM53.7178 69.7566L53.0072 69.021C51.1037 70.8598 48.4818 72.0005 45.5791 72.0005V73.0232V74.0459C49.0268 74.0459 52.1542 72.6889 54.4283 70.4922L53.7178 69.7566ZM45.5791 73.0232L45.5791 72.0005C40.4807 72.0004 36.2541 68.4892 35.2658 63.8595L34.2656 64.073L33.2654 64.2865C34.4586 69.8763 39.5323 74.0458 45.5791 74.0459L45.5791 73.0232ZM34.2656 64.073L33.8218 63.1516C32.1198 63.9714 30.2117 64.4321 28.1933 64.4321L28.1934 65.4548L28.1934 66.4776C30.5263 66.4775 32.7372 65.9445 34.7095 64.9944L34.2656 64.073ZM28.1934 65.4548V64.4321C21.0199 64.4321 15.2044 58.6165 15.2044 51.4431H14.1816H13.1589C13.1589 59.7462 19.8903 66.4776 28.1934 66.4776V65.4548ZM14.1816 51.4431L15.2044 51.4431C15.2044 46.7076 17.738 42.5628 21.5285 40.2921L21.0029 39.4148L20.4774 38.5374C16.0957 41.1623 13.1589 45.9593 13.1589 51.4431L14.1816 51.4431ZM21.0029 39.4148L21.5762 38.5678C19.2103 36.9665 17.6585 34.2607 17.6585 31.1931H16.6357H15.613C15.613 34.9681 17.5257 38.2963 20.4297 40.2618L21.0029 39.4148ZM16.6357 31.1931L17.6585 31.1931C17.6585 26.2792 21.6425 22.2959 26.5566 22.2959V21.2732V20.2505C20.513 20.2505 15.6131 25.1493 15.613 31.1931L16.6357 31.1931ZM26.5566 21.2732V22.2959C27.388 22.2959 28.1921 22.4119 28.9562 22.6254L29.2314 21.6404L29.5067 20.6554C28.5685 20.3932 27.5793 20.2505 26.5566 20.2505V21.2732ZM29.2314 21.6404L30.1785 21.2543C29.7565 20.2193 29.5228 19.0871 29.5227 17.8981L28.5 17.8982L27.4773 17.8982C27.4773 19.3576 27.7646 20.7517 28.2844 22.0265L29.2314 21.6404ZM28.5 17.8982H29.5227C29.5227 12.9841 33.5061 9.00019 38.42 9.00002L38.4199 7.97729L38.4199 6.95457C32.3762 6.95478 27.4773 11.8547 27.4773 17.8982H28.5Z" fill="#1A68FE"/>
<path d="M124.842 36.7159C124.842 29.5425 119.072 23.7273 111.955 23.7273C106.37 23.7273 101.614 27.3091 99.8262 32.3182" stroke="#1A68FE" stroke-width="2.04545"/>
<path d="M28.193 65.4546C20.4547 65.4546 14.1816 59.1815 14.1816 51.4432C14.1816 43.705 20.4547 37.4319 28.193 37.4319" stroke="#1A68FE" stroke-width="2.04545"/>
<path d="M65.6257 85.0907C78.2257 75.6816 93.9893 68.4203 100.296 67.7043C78.7165 77.6248 86.4893 92.1475 63.5802 109.023C40.6711 125.898 0.58023 105.648 12.3416 88.9771C24.103 72.3066 49.8757 96.8521 65.6257 85.0907Z" fill="#1A68FE" stroke="white" stroke-width="2.04545"/>
<circle cx="70.7393" cy="92.9659" r="16.4659" fill="white" stroke="#1A68FE" stroke-width="2.45455"/>
<ellipse cx="68.6942" cy="93.4773" rx="10.5341" ry="12.2727" fill="#1A68FE"/>
<path d="M42.8181 164.454C23.9108 156.309 16.3269 125.32 38.2182 114.443C70.7396 98.284 72.0681 85.4999 90.8863 67.8068C109.705 50.1136 156.587 77.542 132.923 120.989C107.355 167.932 62.7606 173.045 42.8181 164.454Z" fill="#1A68FE" stroke="white" stroke-width="2.04545"/>
<path d="M34.8406 122.625C34.8406 122.625 29.9926 131.011 37.4792 133.568M37.4792 133.568C44.9659 136.125 59.0792 126.102 59.0792 126.102M37.4792 133.568C36.6679 136.875 36.2315 144.92 40.9769 150.648" stroke="white" stroke-width="2.04545"/>
<path d="M150.001 99.6136C137.973 76.9499 124.671 70.0568 119.523 69.4431C135.989 83.8636 142.33 106.568 142.33 134.079C142.33 161.591 169.023 172.636 176.183 156.273C183.342 139.909 165.035 127.943 150.001 99.6136Z" fill="#1A68FE" stroke="white" stroke-width="2.04545" stroke-linecap="round"/>
<circle cx="103.466" cy="96.4432" r="16.4659" fill="white" stroke="#1A68FE" stroke-width="2.45455"/>
<ellipse cx="104.898" cy="99.1024" rx="12.375" ry="12.7841" fill="#1A68FE"/>
<ellipse cx="108.376" cy="102.784" rx="3.57955" ry="4.19318" fill="white"/>
<path d="M115.229 57.6819C120.95 57.6819 126.048 60.2302 129.345 64.2024C130.607 63.8196 131.945 63.6135 133.331 63.6135C140.686 63.6137 146.697 69.4078 147.113 76.7122C147.223 76.7086 147.334 76.7043 147.444 76.7043C152.923 76.7043 157.365 81.1463 157.365 86.6252C157.365 92.1041 152.923 96.5452 147.444 96.5452C143.34 96.5451 139.818 94.0531 138.309 90.4993C136.764 91.1009 135.086 91.4319 133.331 91.4319C130.421 91.4319 127.722 90.5242 125.496 88.9758C122.584 90.9101 119.045 92.0452 115.229 92.0452C105.287 92.0452 97.2285 84.3528 97.2285 74.8635C97.2286 65.3744 105.287 57.6819 115.229 57.6819Z" fill="white"/>
<path d="M97.2285 74.8638C97.2285 84.353 105.287 92.0456 115.229 92.0456C119.045 92.0456 122.584 90.9115 125.496 88.9774C127.722 90.5254 130.421 91.432 133.331 91.432C135.086 91.432 136.765 91.1015 138.309 90.4997C139.819 94.0533 143.34 96.5456 147.444 96.5456C152.923 96.5456 157.365 92.1041 157.365 86.6251C157.365 83.51 155.929 80.7302 153.683 78.9114" stroke="#1A68FE" stroke-width="2.04545"/>
<path d="M79.3301 54C83.957 54 88.1017 55.9936 90.8965 59.1396C92.0373 58.8552 93.2338 58.7041 94.4668 58.7041C102.318 58.7041 108.683 64.8404 108.683 72.4092C108.683 79.9779 102.318 86.1133 94.4668 86.1133C90.7405 86.1133 87.3495 84.7312 84.8145 82.4697C83.1126 83.1045 81.2636 83.4541 79.3301 83.4541C70.9143 83.4539 64.0919 76.861 64.0918 68.7275C64.0918 60.594 70.9142 54.0002 79.3301 54Z" fill="white"/>
<path d="M65.2871 74.4546C67.5992 79.7432 73.0164 83.4546 79.3305 83.4546C81.2642 83.4546 83.1137 83.1061 84.8157 82.4712C87.3506 84.7319 90.7413 86.1137 94.4669 86.1137C98.1926 86.1137 101.583 84.732 104.118 82.4712" stroke="#1A68FE" stroke-width="2.04545"/>
<path d="M103.91 71.5503C105.251 71.7955 106.593 72.0407 107.934 72.2859C107.968 72.0054 108.072 71.5315 108.176 71.1429C109.103 67.5137 111.589 64.5527 115.3 65.1338C119.175 65.2918 120.878 69.7343 120.541 73.8967C120.517 74.3446 120.471 74.8325 120.411 75.2321C120.911 75.341 121.41 75.4498 121.91 75.5586C122.036 75.0481 122.122 74.5615 122.195 74.0643C122.503 71.7988 122.523 69.3998 121.596 67.0538C120.731 64.674 118.281 62.7693 115.771 62.3388C113.434 61.79 110.53 62.2681 108.503 63.9211C106.458 65.5337 105.232 67.7117 104.404 69.9276C104.216 70.4502 104.059 70.9128 103.91 71.5503Z" fill="#1A68FE"/>
<path d="M78.6471 52.3162C79.4427 51.2088 80.2384 50.1013 81.0341 48.9939C80.4718 48.6178 79.9063 48.3547 79.3426 48.1483C74.2382 46.4046 68.9995 48.4947 65.8067 51.8851C63.1623 54.7565 59.3784 56.4542 55.3826 55.9115C54.9397 55.8615 54.4879 55.7884 54.0355 55.7055C53.9207 56.2038 53.8059 56.7021 53.6911 57.2004C54.1479 57.3281 54.6332 57.4523 55.1162 57.5519C59.4862 58.6044 64.4324 56.9682 67.7418 53.9122C70.6144 51.327 74.8357 50.4138 77.8551 51.8216C78.1655 51.9698 78.4453 52.1444 78.6471 52.3162Z" fill="#1A68FE"/>
<path d="M141.307 71.3864C146.277 71.3864 150.307 67.3112 150.307 62.2842C150.307 57.2571 146.277 53.1819 141.307 53.1819" stroke="#1A68FE" stroke-width="2.04545"/>
<path d="M68.376 39.379C70.6342 35.5285 69.3079 30.5555 65.4136 28.2717C61.5193 25.9878 56.5317 27.2578 54.2734 31.1084" stroke="#1A68FE" stroke-width="2.04545"/>
<path d="M35.4669 44.1819C32.6359 47.029 32.6753 51.6582 35.5548 54.5213C38.4343 57.3845 43.0635 57.3974 45.8945 54.5503" stroke="#1A68FE" stroke-width="2.04545"/>
<path d="M83.625 164.352C89.3121 162.648 100.295 152.284 101.727 138.886" stroke="white" stroke-width="2.04545"/>
</svg>
