<svg width="180" height="176" viewBox="0 0 180 176" fill="none" xmlns="http://www.w3.org/2000/svg">
<path d="M50.0851 30.3634C41.8011 21.8748 25.4653 21.4786 14.2153 32.8309C2.86304 44.899 7.26773 63.7733 16.1306 70.2498C27.2047 78.3422 41.9033 72.193 48.8579 63.8067C55.8124 55.4203 58.3692 38.8521 50.0851 30.3634Z" fill="#1A68FE"/>
<path d="M147.682 71.7967C140.83 57.581 123.441 36.0014 92.6296 33.2272C61.8181 30.453 37.5595 41.639 28.4304 60.7513C19.3013 79.8636 21.6821 88.8763 12.5513 101.341C3.42058 113.805 8.79555 139.194 43.5686 149.524C50.6253 151.62 53.4889 156.172 61.2616 158.013C107.693 164.149 140.597 154.83 153.307 131.319C166.017 107.809 155.042 87.066 147.682 71.7967Z" fill="white" stroke="#1A68FE" stroke-width="2.04545"/>
<path d="M84.923 93.6928C83.4739 109.599 88.4285 117.975 98.9209 125.103C109.413 132.23 133.331 127.859 133.152 109.443C132.973 91.0257 119.453 76.8261 109.151 73.2517C98.8483 69.6773 86.7344 73.8102 84.923 93.6928Z" fill="#1A68FE"/>
<ellipse cx="102.775" cy="99.3901" rx="15.1364" ry="15.9545" fill="white" stroke="#1A68FE" stroke-width="2.45455"/>
<ellipse cx="103.593" cy="101.844" rx="11.6591" ry="12.6818" fill="#1A68FE"/>
<ellipse cx="105.332" cy="102.867" rx="3.375" ry="3.88636" fill="white"/>
<path d="M60.2615 90.0787C59.6779 103.626 56.137 103.171 46.2876 112.527C36.4381 121.883 21.5115 118.691 21.0446 107.528C20.5778 96.3647 25.7133 83.034 38.7856 73.8218C51.8579 64.6096 60.8451 76.5313 60.2615 90.0787Z" fill="#1A68FE"/>
<path d="M35.8591 55.8569C36.7721 56.8698 37.685 57.8828 38.5979 58.8958C39.0031 58.5013 39.379 58.1184 39.752 57.7444C42.7961 54.6316 46.3387 51.7135 49.9902 52.7128C54.1441 53.6885 55.5216 59.5585 59.3515 63.3588C59.7711 63.7574 60.2263 64.126 60.7186 64.4466C61.0131 64.0286 61.3076 63.6105 61.6021 63.1925C61.2197 62.8971 60.8673 62.5622 60.5395 62.1967C57.3438 58.8364 57.0127 52.4797 50.8532 49.9716C45.2758 48.0716 40.4084 51.9741 37.0595 54.8364C36.6479 55.1883 36.2445 55.5379 35.8591 55.8569Z" fill="#1A68FE"/>
<ellipse cx="43.9747" cy="95.0211" rx="11.8919" ry="14.7276" transform="rotate(20.8874 43.9747 95.0211)" fill="white" stroke="#1A68FE" stroke-width="2.45455"/>
<ellipse cx="45.7107" cy="97.4227" rx="10.3847" ry="11.9823" transform="rotate(6.87053 45.7107 97.4227)" fill="#1A68FE"/>
<path d="M48.8867 131.013C49.2271 131.165 49.5429 131.336 49.8376 131.522C52.3085 132.654 56.7104 133.395 60.1367 129.683C62.6254 132.581 72.9208 139.399 86.8299 130.092C87.239 137.354 73.1254 145.842 63.2049 143.797C53.8537 141.869 54.6802 134.579 49.8376 131.522C49.4763 131.356 49.1563 131.182 48.8867 131.013Z" fill="#1A68FE"/>
<ellipse cx="48.6824" cy="99.7171" rx="3.47727" ry="4.19318" fill="white"/>
<path d="M44.6849 122.319C42.946 132.035 56.8642 135.206 60.1256 129.274" stroke="#1A68FE" stroke-width="2.04545"/>
<path d="M60.9539 117.922C60.1698 119.865 58.9289 124.836 60.238 129.172C63.204 134.49 76.3972 138.07 85.0904 132.342" stroke="#1A68FE" stroke-width="2.04545"/>
<path d="M73.1341 116.488C72.197 121.414 65.6847 124.494 60.0543 123.674C54.4239 122.854 49.01 117.731 49.6532 113.316C50.2965 108.901 54.261 107.712 60.6116 108.216C66.9622 108.719 74.0713 111.561 73.1341 116.488Z" fill="#1A68FE"/>
<path d="M130.907 32.4219C121.909 36.8196 118.841 42.2398 123.342 49.3989C127.843 56.558 138.477 64.8424 138.477 64.8424C138.477 64.8424 149.114 73.433 154.432 88.5694C168.239 85.9103 181.124 64.8424 170.692 45.9218C160.26 27.0011 139.906 28.0242 130.907 32.4219Z" fill="#1A68FE"/>
<path d="M91.1414 72.5902C90.081 71.7329 89.0206 70.8755 87.9602 70.0182C88.3394 69.5832 88.7266 69.1655 89.1333 68.7555C92.6643 65.015 98.2067 62.5502 103.409 63.3399C108.602 64.0204 112.954 66.6563 116.803 69.5787C117.23 69.9065 117.645 70.2365 118.071 70.5843C117.763 70.9926 117.455 71.401 117.148 71.8094C116.708 71.5046 116.28 71.2184 115.843 70.9356C108.265 65.517 97.4622 63.8969 92.0476 71.4411C91.7342 71.8128 91.4352 72.193 91.1414 72.5902Z" fill="#1A68FE"/>
<path d="M5.93199 115.713C6.91381 110.803 10.5002 104.463 12.1706 101.906L10.2276 118.167C9.81854 122.769 8.69336 123.997 7.15927 123.997C5.62518 123.997 4.70472 121.849 5.93199 115.713Z" fill="white"/>
<path d="M11.4548 135.41C9.16393 130.583 9.40938 122.149 9.81847 119.558L14.7275 121.194C15.1366 123.035 15.8525 129.294 15.4434 131.422C14.9321 134.081 17.3866 136.638 17.1821 137.967C16.9775 139.297 14.3185 141.444 11.4548 135.41Z" fill="white"/>
<path d="M12.1706 101.906C10.5002 104.463 6.91381 110.803 5.93199 115.713C4.70472 121.849 5.62518 123.997 7.15927 123.997C8.69336 123.997 9.81854 122.769 10.2276 118.167" stroke="#1A68FE" stroke-width="2.04545" stroke-linecap="round"/>
<path d="M9.81878 120.99C9.40969 123.581 8.76549 131.057 11.8642 135.41C16.1597 141.444 16.9779 140.115 17.1824 138.785C17.3869 137.456 15.3415 134.899 15.8529 130.194" stroke="#1A68FE" stroke-width="2.04545" stroke-linecap="round"/>
<path d="M86.0123 26.4888C89.1214 28.1252 100.671 34.1604 106.671 36.0013L101.558 38.1491L87.6487 37.3297C85.535 36.2388 81.6143 30.682 81.1031 28.5343C80.5183 26.077 82.1259 24.4434 86.0123 26.4888Z" fill="white"/>
<path d="M106.672 36.0015C100.672 34.1605 88.5415 28.0612 85.399 26.4899C81.4102 24.4956 80.4894 26.4899 81.5121 29.3536C82.5348 32.2173 84.5794 34.1604 86.4213 36.0015" stroke="#1A68FE" stroke-width="2.04545" stroke-linecap="round"/>
<path d="M68.9319 29.865C72.6955 31.5831 78.6819 32.5581 81.2046 32.8309V36.3081C81.716 37.74 80.5296 39.7445 71.6932 36.3081C60.6478 32.0127 64.2273 27.7172 68.9319 29.865Z" fill="white"/>
<path d="M81.2035 32.8308C78.6808 32.5581 72.6944 31.5831 68.9308 29.8649C64.2262 27.7171 62.0792 32.8308 69.8515 36.6149" stroke="#1A68FE" stroke-width="2.04545" stroke-linecap="round"/>
<path d="M159.648 119.25C159.187 115.287 159.122 108.819 159.054 106.16L154.145 118.944C154.963 121.433 157.09 126.41 159.054 126.41C161.508 126.41 160.159 123.648 159.648 119.25Z" fill="white"/>
<path d="M154.126 139.297C157.194 139.706 156.546 126.649 156.171 123.854L151.568 120.683L145.943 124.876L150.443 129.888C153.102 134.388 151.057 138.888 154.126 139.297Z" fill="white"/>
<path d="M159.054 106.16C159.122 108.819 159.034 118.024 159.852 120.99C160.67 123.956 160.588 126.41 159.054 126.41C157.52 126.41 154.963 121.433 154.145 118.944" stroke="#1A68FE" stroke-width="2.04545" stroke-linecap="round"/>
<path d="M156.171 123.854C156.546 126.649 157.194 139.706 154.126 139.297C151.057 138.888 153.102 134.388 150.443 129.888" stroke="#1A68FE" stroke-width="2.04545" stroke-linecap="round"/>
</svg>
